<svg xmlns="http://www.w3.org/2000/svg" viewBox="0 0 317.7 68.2"><title>Asset 36</title><rect x="252.2" width="65.5" height="65.48" fill="#cc6060"/><polygon points="295.3 0 295 9 308.7 9 308.7 56.5 261.2 56.5 261.2 9 273.9 9 273.6 0 252.2 0 252.2 65.5 317.7 65.5 317.7 0 295.3 0"/><path d="M279.8,31.8,278.6,0h11.7L289,31.8Zm10.8,10.1a5.7,5.7,0,0,1-1.7,4.2,6,6,0,0,1-10.2-4.2,5.8,5.8,0,0,1,1.8-4.3,5.9,5.9,0,0,1,10.1,4.3Z"/><path d="M0,35.9V11.7H9.9V35.9a8,8,0,0,0,1.8,5.6,6.7,6.7,0,0,0,5.2,2,6.9,6.9,0,0,0,5.3-2,7.6,7.6,0,0,0,1.9-5.6V11.7H34V35.9a17.4,17.4,0,0,1-2.5,9.3,15.2,15.2,0,0,1-6.4,5.7,19.3,19.3,0,0,1-8.3,1.7A17.1,17.1,0,0,1,4.9,48.3C1.6,45.3,0,41.2,0,35.9Z"/><path d="M51.4,20v6c2.3-4.2,5.4-6.3,9.2-6.3v10H58.2a7.4,7.4,0,0,0-5.1,1.6c-1.1,1.1-1.7,3-1.7,5.7V52.2H41.5V20Z"/><path d="M67.1,48a16.5,16.5,0,0,1-4.3-11.8,16.7,16.7,0,0,1,4.3-11.9,13.5,13.5,0,0,1,10.4-4.6,10.9,10.9,0,0,1,9.4,4.5V20h9.9V52.1a16.8,16.8,0,0,1-3.7,11.2,11,11,0,0,1-5,3.6,19.7,19.7,0,0,1-7.5,1.3q-7.3,0-11.7-3c-2.9-2-4.5-5.1-4.9-9.2h9.7q1.3,3.6,6.9,3.6a6.1,6.1,0,0,0,4.5-1.8q1.8-1.8,1.8-5.7V47.6a11.1,11.1,0,0,1-9.6,5A13.2,13.2,0,0,1,67.1,48Zm17.7-6a7.9,7.9,0,0,0,2.1-5.9,7.6,7.6,0,0,0-2.1-5.8,6.8,6.8,0,0,0-4.9-2.1A6.7,6.7,0,0,0,75,30.3a7.6,7.6,0,0,0-2.2,5.9A7.7,7.7,0,0,0,75,42.1a7,7,0,0,0,4.9,2A6.8,6.8,0,0,0,84.8,42Z"/><path d="M118.3,52.6a15.8,15.8,0,0,1-11.6-4.5q-4.5-4.5-4.5-12t4.5-12a16.1,16.1,0,0,1,11.6-4.4,16.3,16.3,0,0,1,11.8,4.4c3.1,2.9,4.7,6.9,4.7,12.1a15.8,15.8,0,0,1-.3,3.2H112.3a5.8,5.8,0,0,0,1.9,3.5,5.4,5.4,0,0,0,3.5,1.3,6.6,6.6,0,0,0,2.8-.4,4.5,4.5,0,0,0,1.4-.7,8.1,8.1,0,0,0,1.1-1.3h10.7a14.3,14.3,0,0,1-5.5,7.9A16.5,16.5,0,0,1,118.3,52.6Zm4.2-23.1a6.4,6.4,0,0,0-4.1-1.4,6.1,6.1,0,0,0-4,1.4,6.4,6.4,0,0,0-2,3.7h12.1A5.5,5.5,0,0,0,122.5,29.5Z"/><path d="M150.1,20v4.8c2.1-3.4,5.3-5.1,9.8-5.1a11.6,11.6,0,0,1,9,3.7c2.2,2.4,3.4,5.8,3.4,10V52.2h-9.8V34.7a6.9,6.9,0,0,0-1.7-4.8,6.8,6.8,0,0,0-9,0,6.9,6.9,0,0,0-1.7,4.8V52.2h-9.9V20Z"/><path d="M193.5,43.9H197v8.3h-5q-5.4,0-8.4-2.4c-2-1.5-3-4.3-3-8.2V28.2h-3V20h3V12.2h9.9V20H197v8.2h-6.5V41.6C190.5,43.1,191.5,43.9,193.5,43.9Z"/><path d="M216.6,52.6A15.8,15.8,0,0,1,205,48.1q-4.5-4.5-4.5-12t4.5-12a16.1,16.1,0,0,1,11.6-4.4,16.3,16.3,0,0,1,11.8,4.4c3.1,2.9,4.7,6.9,4.7,12.1a15.8,15.8,0,0,1-.3,3.2H210.6a5.5,5.5,0,0,0,2,3.5,5,5,0,0,0,3.4,1.3,6.6,6.6,0,0,0,2.8-.4,4.5,4.5,0,0,0,1.4-.7,8.1,8.1,0,0,0,1.1-1.3H232a14.3,14.3,0,0,1-5.5,7.9A16.5,16.5,0,0,1,216.6,52.6Zm4.2-23.1a6.4,6.4,0,0,0-4.1-1.4,6.1,6.1,0,0,0-4,1.4,6.4,6.4,0,0,0-2,3.7h12.1A5.5,5.5,0,0,0,220.8,29.5Z"/></svg>