<svg xmlns="http://www.w3.org/2000/svg" viewBox="0 0 507.9 81.5"><title>Asset 39</title><polygon points="495.1 16 436.2 16 436.2 81.5 501.7 81.5 501.7 29.2 495.1 16" fill="#9d75bc"/><polygon points="445.2 72.5 492.7 72.5 492.7 72.5 445.2 72.5 445.2 72.5"/><polygon points="436.2 81.5 501.7 81.5 501.7 81.5 436.2 81.5 436.2 81.5"/><polygon points="445.2 25 456.1 25 456.1 25 445.2 25 445.2 25"/><polygon points="492.7 48.9 492.7 63.1 492.7 63.6 492.7 72.5 445.2 72.5 445.2 37.8 445.2 36.3 445.2 25 456.1 25 464.7 16 436.2 16 436.2 81.5 501.7 81.5 501.7 47.5 492.7 48.9"/><path d="M507.9,41.5l-4.7-9.3h0L492,9.9,487.1,0,450.8,37.8l5.7,11.4L468,47.5l9.1,18.3,9.1-4.6-7.7-15.3Zm-22-25.7,8.9,17.9L461,39.8Z"/><path d="M6,58.7A20,20,0,0,1,0,43.8,20,20,0,0,1,6,28.9a20.6,20.6,0,0,1,14.8-5.8,20.6,20.6,0,0,1,12,3.5,18.2,18.2,0,0,1,7.3,10H28.4A7.8,7.8,0,0,0,21,32.1a10.3,10.3,0,0,0-8,3.2,11.8,11.8,0,0,0-3,8.5,11.9,11.9,0,0,0,3,8.5,10.3,10.3,0,0,0,8,3.2A7.8,7.8,0,0,0,28.4,51H40.1a17.9,17.9,0,0,1-7.3,9.9,20.7,20.7,0,0,1-12,3.6A20.6,20.6,0,0,1,6,58.7Z"/><path d="M48.2,60c-3.3-3-4.9-7-4.9-12s1.6-8.9,4.9-11.9a16.9,16.9,0,0,1,12-4.5,16.9,16.9,0,0,1,12,4.5C75.4,39.1,77,43,77,48s-1.6,9-4.8,12a16.5,16.5,0,0,1-12,4.6A16.8,16.8,0,0,1,48.2,60ZM65,54.1c1.3-1.4,1.9-3.4,1.9-6s-.6-4.6-2-6a6.4,6.4,0,0,0-9.5,0c-1.4,1.4-2,3.3-2,6a8.5,8.5,0,0,0,2,6,6.5,6.5,0,0,0,4.8,2A6.2,6.2,0,0,0,65,54.1Z"/><path d="M92.4,31.9v4.8c2-3.4,5.3-5.1,9.7-5.1a12.4,12.4,0,0,1,6.4,1.6,11.5,11.5,0,0,1,4.4,4.6,14.1,14.1,0,0,1,4.6-4.5,12.5,12.5,0,0,1,6.4-1.7,12.7,12.7,0,0,1,9.4,3.6c2.3,2.5,3.4,5.8,3.4,10.1V64.2h-9.8V46.7a6.9,6.9,0,0,0-1.6-4.8,6,6,0,0,0-4.6-1.8,5.8,5.8,0,0,0-4.5,1.8,6.5,6.5,0,0,0-1.7,4.8V64.2h-9.8V46.7a6.5,6.5,0,0,0-1.6-4.8,5.9,5.9,0,0,0-4.6-1.8A5.8,5.8,0,0,0,94,41.9a6.5,6.5,0,0,0-1.6,4.8V64.2H82.5V31.9Z"/><path d="M166.1,31.9H176V64.2h-9.9V59.4c-2,3.4-5.3,5.1-9.7,5.1a11.6,11.6,0,0,1-9-3.7c-2.3-2.4-3.5-5.8-3.5-10V31.9h9.9V49.4a6.9,6.9,0,0,0,1.6,4.9,6.1,6.1,0,0,0,4.5,1.7,6.2,6.2,0,0,0,4.6-1.7,6.9,6.9,0,0,0,1.6-4.9Z"/><path d="M193.7,31.9v4.8c2-3.4,5.3-5.1,9.7-5.1a11.6,11.6,0,0,1,9,3.7c2.3,2.5,3.4,5.8,3.4,10V64.2H206V46.7a6.5,6.5,0,0,0-1.6-4.8,5.9,5.9,0,0,0-4.6-1.8,5.8,5.8,0,0,0-4.5,1.8,6.5,6.5,0,0,0-1.6,4.8V64.2h-9.9V31.9Z"/><path d="M232.4,28.3a5.8,5.8,0,0,1-4.1,1.7,5.5,5.5,0,0,1-4.1-1.7,5.3,5.3,0,0,1-1.7-4.1,5.5,5.5,0,0,1,1.7-4.2,5.4,5.4,0,0,1,4.1-1.6,5.7,5.7,0,0,1,4.1,1.6,5.8,5.8,0,0,1,1.6,4.2A5.6,5.6,0,0,1,232.4,28.3Zm-9,35.9V31.9h9.8V64.2Z"/><path d="M243.1,60.1c-2.9-3-4.4-7-4.4-12s1.5-9,4.4-12a15.8,15.8,0,0,1,11.6-4.5,17.1,17.1,0,0,1,10,2.9,13.7,13.7,0,0,1,5.4,8.4H259.5a4.8,4.8,0,0,0-4.6-2.9,5.4,5.4,0,0,0-4.7,2.2,10.3,10.3,0,0,0-1.5,5.9,10.2,10.2,0,0,0,1.5,5.8,5.2,5.2,0,0,0,4.5,2.2,5.7,5.7,0,0,0,2.9-.6,6,6,0,0,0,1.9-2.2h10.6a14.1,14.1,0,0,1-5.4,8.2,16.1,16.1,0,0,1-10,3.1A15.8,15.8,0,0,1,243.1,60.1Z"/><path d="M276.7,60a17.1,17.1,0,0,1-4.2-11.9,16.9,16.9,0,0,1,4.2-11.8,13.7,13.7,0,0,1,10.4-4.7c4.2,0,7.3,1.5,9.5,4.6V31.9h9.9V64.2h-9.9V59.5a11.2,11.2,0,0,1-9.6,5.1A13.9,13.9,0,0,1,276.7,60Zm17.8-6a8,8,0,0,0,2.1-5.9,7.9,7.9,0,0,0-2.1-5.9,6.9,6.9,0,0,0-9.9,0,8,8,0,0,0-2.1,5.9,7.9,7.9,0,0,0,2.1,5.9,7.1,7.1,0,0,0,9.9,0Z"/><path d="M316.2,60a16.7,16.7,0,0,1-4.3-11.9,16.5,16.5,0,0,1,4.3-11.8,13.6,13.6,0,0,1,10.4-4.7,10.8,10.8,0,0,1,9.4,4.6V21.4h9.9V64.2H336V59.5a10.9,10.9,0,0,1-9.5,5.1A13.7,13.7,0,0,1,316.2,60Zm17.7-6a8,8,0,0,0,2.1-5.9,7.9,7.9,0,0,0-2.1-5.9,6.8,6.8,0,0,0-4.9-2.1,6.7,6.7,0,0,0-4.9,2.1,8,8,0,0,0-2.1,5.9,7.9,7.9,0,0,0,2.1,5.9,7,7,0,0,0,4.9,2A7.1,7.1,0,0,0,333.9,54Z"/><path d="M356.3,60c-3.3-3-4.9-7-4.9-12s1.6-8.9,4.9-11.9a16.9,16.9,0,0,1,12-4.5,17.2,17.2,0,0,1,12,4.5c3.2,3,4.8,6.9,4.8,11.9s-1.6,9-4.8,12a18,18,0,0,1-24,0Zm16.8-5.9c1.3-1.4,1.9-3.4,1.9-6s-.6-4.6-2-6a6.3,6.3,0,0,0-4.8-2.1,6.6,6.6,0,0,0-4.8,2.1c-1.3,1.4-1.9,3.3-1.9,6s.6,4.6,2,6a6.5,6.5,0,0,0,4.8,2A6.2,6.2,0,0,0,373.1,54.1Z"/><path d="M388.4,41.7a8.8,8.8,0,0,1,3.6-7.2c2.4-1.9,5.7-2.9,9.9-2.9s7.4.9,10,2.8a9.8,9.8,0,0,1,4,7.8H405.8a3,3,0,0,0-1.1-2.3,6.1,6.1,0,0,0-3-.6q-3.9,0-3.9,2.4c0,1.4,1.6,2.4,4.8,2.9a36.9,36.9,0,0,1,8.7,2.5,6.9,6.9,0,0,1,3.4,2.7,7.4,7.4,0,0,1,1.3,4.6,8.8,8.8,0,0,1-3.8,7.3,16.3,16.3,0,0,1-9.8,2.9,16.9,16.9,0,0,1-9.8-2.7,9.8,9.8,0,0,1-4.3-7.9h10.1c.3,1.9,1.7,2.9,4.2,2.9a4.9,4.9,0,0,0,2.8-.8,2.4,2.4,0,0,0,1.2-2.1c0-.8-.7-1.5-1.9-2a35.2,35.2,0,0,0-4.5-1.3,52.9,52.9,0,0,1-5.4-1.3,10.2,10.2,0,0,1-4.6-2.7A7.1,7.1,0,0,1,388.4,41.7Z"/></svg>