<svg xmlns="http://www.w3.org/2000/svg" viewBox="0 0 508.7 67.8"><title>Asset 38</title><path d="M30.9,24.3A13.1,13.1,0,0,1,28,32.2a11.2,11.2,0,0,1-4.7,3.2A20.2,20.2,0,0,1,16,36.7H9.9V52.4H0V11.9H16c4.7,0,8.4,1.2,11,3.6A11.6,11.6,0,0,1,30.9,24.3Zm-21,4.8H16a4.8,4.8,0,0,0,3.6-1.3,5,5,0,0,0,1.3-3.5,4.8,4.8,0,0,0-1.4-3.5A4.3,4.3,0,0,0,16,19.4H9.9Z"/><path d="M38.2,48.2a16.5,16.5,0,0,1-4.3-11.8c0-4.9,1.4-8.8,4.3-11.9a13.6,13.6,0,0,1,10.4-4.7A10.9,10.9,0,0,1,58,24.4V20.2h9.9V52.4H58V47.7a10.9,10.9,0,0,1-9.5,5.1A13.4,13.4,0,0,1,38.2,48.2Zm17.7-6A8,8,0,0,0,58,36.3a8,8,0,0,0-2.1-5.9,7.1,7.1,0,0,0-4.9-2,6.8,6.8,0,0,0-4.9,2.1A7.9,7.9,0,0,0,44,36.4a7.6,7.6,0,0,0,2.1,5.8,6.8,6.8,0,0,0,9.8,0Z"/><path d="M73.8,29.9a8.8,8.8,0,0,1,3.7-7.2c2.4-1.9,5.7-2.9,9.8-2.9a16.3,16.3,0,0,1,10,2.9,9.7,9.7,0,0,1,4.1,7.7H91.3a3,3,0,0,0-1.2-2.3,5.7,5.7,0,0,0-2.9-.6q-3.9,0-3.9,2.4c0,1.4,1.6,2.4,4.7,2.9a42.3,42.3,0,0,1,8.7,2.5,8.2,8.2,0,0,1,3.4,2.7,7.8,7.8,0,0,1,1.4,4.6A8.8,8.8,0,0,1,97.6,50a15.9,15.9,0,0,1-9.7,2.8A17,17,0,0,1,78,50.1a9.7,9.7,0,0,1-4.2-7.9H83.9c.2,2,1.6,2.9,4.1,2.9a4.5,4.5,0,0,0,2.9-.8,2.4,2.4,0,0,0,1.1-2c0-.9-.6-1.6-1.9-2.1A20.7,20.7,0,0,0,85.6,39l-5.3-1.3a10.8,10.8,0,0,1-4.6-2.8A6.5,6.5,0,0,1,73.8,29.9Z"/><path d="M105.3,29.9a8.9,8.9,0,0,1,3.6-7.2c2.5-1.9,5.7-2.9,9.9-2.9a16.3,16.3,0,0,1,10,2.9,9.6,9.6,0,0,1,4,7.7H122.7a3,3,0,0,0-1.1-2.3,6.1,6.1,0,0,0-3-.6c-2.5,0-3.8.8-3.8,2.4s1.5,2.4,4.7,2.9a42.3,42.3,0,0,1,8.7,2.5,8.2,8.2,0,0,1,3.4,2.7,7.8,7.8,0,0,1,1.4,4.6,8.8,8.8,0,0,1-3.9,7.4,16,16,0,0,1-9.8,2.8,16.9,16.9,0,0,1-9.8-2.7,10,10,0,0,1-4.3-7.9h10.1c.3,2,1.7,2.9,4.2,2.9a4.5,4.5,0,0,0,2.9-.8,2.4,2.4,0,0,0,1.1-2c0-.9-.6-1.6-1.9-2.1a22.4,22.4,0,0,0-4.5-1.2l-5.4-1.3a10.4,10.4,0,0,1-4.5-2.8A6.5,6.5,0,0,1,105.3,29.9Z"/><path d="M141.5,48.3a16,16,0,0,1-4.8-12.1,15.6,15.6,0,0,1,4.8-11.9,18.2,18.2,0,0,1,24,0,15.6,15.6,0,0,1,4.8,11.9,16,16,0,0,1-4.8,12.1,16.6,16.6,0,0,1-11.9,4.5A17.3,17.3,0,0,1,141.5,48.3Zm16.8-6a8.5,8.5,0,0,0,2-6,8.5,8.5,0,0,0-2-6,6.9,6.9,0,0,0-4.8-2,6.6,6.6,0,0,0-4.8,2,8.5,8.5,0,0,0-2,6,8.1,8.1,0,0,0,2.1,6,6.4,6.4,0,0,0,9.5,0Z"/><path d="M194.8,48.2a16.5,16.5,0,0,1-4.3-11.8c0-4.9,1.4-8.8,4.3-11.9a13.6,13.6,0,0,1,10.4-4.7,11,11,0,0,1,9.4,4.6V20.2h9.9V52.4h-9.9V47.7a11.2,11.2,0,0,1-9.6,5.1A13.2,13.2,0,0,1,194.8,48.2Zm17.7-6a8,8,0,0,0,2.1-5.9,8,8,0,0,0-2.1-5.9,7.1,7.1,0,0,0-4.9-2,6.7,6.7,0,0,0-4.9,2.1,7.6,7.6,0,0,0-2.2,5.9c0,2.5.7,4.5,2.2,5.8a6.7,6.7,0,0,0,4.9,2.1A6.8,6.8,0,0,0,212.5,42.2Z"/><path d="M259.2,24.4a11.2,11.2,0,0,1,9.5-4.6,13.7,13.7,0,0,1,10.4,4.7,17,17,0,0,1,4.3,11.9,16.9,16.9,0,0,1-4.3,11.8,13.5,13.5,0,0,1-10.3,4.6,11,11,0,0,1-9.6-5.1V67.8h-9.9V20.2h9.9Zm12,17.8a7.6,7.6,0,0,0,2.1-5.8,7.9,7.9,0,0,0-2.1-5.9,6.8,6.8,0,0,0-4.9-2.1,7,7,0,0,0-4.9,2,7.7,7.7,0,0,0-2.2,5.9,7.7,7.7,0,0,0,2.2,5.9,6.7,6.7,0,0,0,4.9,2.1A6.8,6.8,0,0,0,271.2,42.2Z"/><path d="M291,48.2a16.5,16.5,0,0,1-4.3-11.8c0-4.9,1.4-8.8,4.3-11.9a13.6,13.6,0,0,1,10.4-4.7,11.2,11.2,0,0,1,9.5,4.6V20.2h9.8V52.4h-9.8V47.7a11.2,11.2,0,0,1-9.6,5.1A13.4,13.4,0,0,1,291,48.2Zm17.7-6a8.1,8.1,0,0,0,2.2-5.9,8.1,8.1,0,0,0-2.2-5.9,7,7,0,0,0-4.9-2,6.8,6.8,0,0,0-4.9,2.1,7.9,7.9,0,0,0-2.1,5.9,7.6,7.6,0,0,0,2.1,5.8,6.8,6.8,0,0,0,4.9,2.1A6.7,6.7,0,0,0,308.7,42.2Z"/><path d="M326.6,29.9a8.8,8.8,0,0,1,3.7-7.2c2.4-1.9,5.7-2.9,9.8-2.9s7.5,1,10,2.9a9.7,9.7,0,0,1,4.1,7.7H344.1a2.8,2.8,0,0,0-1.2-2.3,5.5,5.5,0,0,0-2.9-.6q-3.9,0-3.9,2.4c0,1.4,1.6,2.4,4.7,2.9a45.2,45.2,0,0,1,8.8,2.5,8.6,8.6,0,0,1,3.3,2.7,7.8,7.8,0,0,1,1.4,4.6,8.8,8.8,0,0,1-3.9,7.4,15.9,15.9,0,0,1-9.7,2.8,17.2,17.2,0,0,1-9.9-2.7,9.7,9.7,0,0,1-4.2-7.9h10.1c.2,2,1.6,2.9,4.1,2.9a4.5,4.5,0,0,0,2.9-.8,2.4,2.4,0,0,0,1.1-2c0-.9-.6-1.6-1.9-2.1a20.7,20.7,0,0,0-4.5-1.2l-5.3-1.3a11.4,11.4,0,0,1-4.6-2.8A6.9,6.9,0,0,1,326.6,29.9Z"/><path d="M358.1,29.9a8.9,8.9,0,0,1,3.6-7.2,16,16,0,0,1,9.9-2.9,16.3,16.3,0,0,1,10,2.9,9.7,9.7,0,0,1,4.1,7.7H375.5a3,3,0,0,0-1.1-2.3,5.9,5.9,0,0,0-3-.6c-2.5,0-3.8.8-3.8,2.4s1.6,2.4,4.7,2.9a42.3,42.3,0,0,1,8.7,2.5,8.2,8.2,0,0,1,3.4,2.7,7.8,7.8,0,0,1,1.4,4.6,8.8,8.8,0,0,1-3.9,7.4,16,16,0,0,1-9.8,2.8,16.9,16.9,0,0,1-9.8-2.7,10,10,0,0,1-4.3-7.9h10.2c.2,2,1.6,2.9,4.1,2.9a4.5,4.5,0,0,0,2.9-.8,2.4,2.4,0,0,0,1.1-2c0-.9-.6-1.6-1.9-2.1a20.7,20.7,0,0,0-4.5-1.2l-5.4-1.3a11.1,11.1,0,0,1-4.5-2.8A6.5,6.5,0,0,1,358.1,29.9Z"/><path d="M394.3,48.3a16,16,0,0,1-4.8-12.1,15.6,15.6,0,0,1,4.8-11.9,17.2,17.2,0,0,1,12-4.5,16.9,16.9,0,0,1,12,4.5,15.6,15.6,0,0,1,4.8,11.9,16,16,0,0,1-4.8,12.1,16.6,16.6,0,0,1-11.9,4.5A17.3,17.3,0,0,1,394.3,48.3Zm16.8-6a8.5,8.5,0,0,0,2-6,8.5,8.5,0,0,0-2-6,6.9,6.9,0,0,0-4.8-2,6.6,6.6,0,0,0-4.8,2,8.5,8.5,0,0,0-2,6,8.1,8.1,0,0,0,2.1,6,6.4,6.4,0,0,0,9.5,0Z"/><rect x="443.2" width="65.5" height="65.48" fill="#6dccae"/><path d="M490.8,0a17,17,0,0,1,4.9,9h4V56.5H452.2V9h3.9a18.7,18.7,0,0,1,4.7-9H443.2V65.5h65.5V0Z"/><path d="M464.6,3.9c2.6-2.6,6.3-3.9,11-3.9s8.4,1.2,11.2,3.7,4.3,5.9,4.3,10.3-1.2,7.5-3.7,9.5-6,2.9-10.6,3v6.1H466.5V19.4h4.2a19.1,19.1,0,0,0,7.4-1.1q2.4-1.2,2.4-4.5a4.8,4.8,0,0,0-1.3-3.5A4.2,4.2,0,0,0,475.8,9a4.6,4.6,0,0,0-3.5,1.3,5,5,0,0,0-1.2,3.5H460.8A12.9,12.9,0,0,1,464.6,3.9Zm7.3,44.9a5.8,5.8,0,0,1-4.3-1.8,5.7,5.7,0,0,1-1.7-4.2,6.1,6.1,0,0,1,1.7-4.3,5.7,5.7,0,0,1,4.3-1.7,5.4,5.4,0,0,1,4.2,1.7,5.8,5.8,0,0,1,1.8,4.3,6.2,6.2,0,0,1-6,6Z"/></svg>