<svg xmlns="http://www.w3.org/2000/svg" viewBox="0 0 244.7 48.8"><title>Comprova Logo</title><path d="M3.3,32.9A11.8,11.8,0,0,1,0,24.2q0-5.6,3.3-8.7a11.1,11.1,0,0,1,8.4-3.3,12.2,12.2,0,0,1,7.2,2.1,10.5,10.5,0,0,1,4,6.1H15.1a3.5,3.5,0,0,0-3.3-2.1,3.9,3.9,0,0,0-3.4,1.6,7.8,7.8,0,0,0-1.1,4.3,7.7,7.7,0,0,0,1.1,4.2A3.7,3.7,0,0,0,11.7,30a4.1,4.1,0,0,0,2.1-.4,4,4,0,0,0,1.3-1.7h7.8a10.2,10.2,0,0,1-4,6,11.7,11.7,0,0,1-7.2,2.3A11.1,11.1,0,0,1,3.3,32.9Z"/><path d="M27.7,32.8a11.2,11.2,0,0,1-3.5-8.7c0-3.6,1.1-6.5,3.5-8.6a12.1,12.1,0,0,1,8.7-3.3,12.1,12.1,0,0,1,8.7,3.3c2.4,2.1,3.5,5,3.5,8.6a11.2,11.2,0,0,1-3.5,8.7,11.7,11.7,0,0,1-8.6,3.4A12.1,12.1,0,0,1,27.7,32.8Zm12.2-4.3a5.7,5.7,0,0,0,1.4-4.3,6.4,6.4,0,0,0-1.4-4.4,4.9,4.9,0,0,0-3.5-1.5,4.7,4.7,0,0,0-3.5,1.5,6,6,0,0,0-1.4,4.4A5.8,5.8,0,0,0,33,28.5,4.5,4.5,0,0,0,36.5,30,4.6,4.6,0,0,0,39.9,28.5Z"/><path d="M59.4,12.5v3.4c1.5-2.5,3.8-3.7,7.1-3.7a9,9,0,0,1,4.6,1.2,8.5,8.5,0,0,1,3.2,3.3,11.5,11.5,0,0,1,3.3-3.3,9.4,9.4,0,0,1,4.7-1.2,9.3,9.3,0,0,1,6.8,2.6,10.4,10.4,0,0,1,2.5,7.4V35.9H84.5V23.2a4.6,4.6,0,0,0-1.2-3.5,4.8,4.8,0,0,0-6.6,0,4.6,4.6,0,0,0-1.2,3.5V35.9H68.3V23.2a5.1,5.1,0,0,0-1.1-3.5,4.8,4.8,0,0,0-6.6,0,4.6,4.6,0,0,0-1.2,3.5V35.9H52.2V12.5Z"/><path d="M147.3,12.5v4.3c1.7-3.1,3.9-4.6,6.7-4.6v7.3h-1.8a5.3,5.3,0,0,0-3.7,1.2c-.8.8-1.2,2.1-1.2,4.1V35.9h-7.2V12.5Z"/><path d="M158.7,32.8a11.5,11.5,0,0,1-3.5-8.7,11.1,11.1,0,0,1,3.5-8.6,12.4,12.4,0,0,1,8.7-3.3,12.1,12.1,0,0,1,8.7,3.3c2.4,2.1,3.5,5,3.5,8.6a11.5,11.5,0,0,1-3.4,8.7,13,13,0,0,1-17.5,0Zm12.2-4.3a5.7,5.7,0,0,0,1.4-4.3,6,6,0,0,0-1.4-4.4,4.8,4.8,0,0,0-7,0,6.4,6.4,0,0,0-1.4,4.4,5.8,5.8,0,0,0,1.5,4.3,4.7,4.7,0,0,0,3.5,1.5A4.5,4.5,0,0,0,170.9,28.5Z"/><polygon points="104.5 6.6 196.2 6.6 198.1 0.1 97.9 0.1 97.9 48.8 108.3 48.8 108.3 42.2 104.5 42.2 104.5 6.6"/><polygon points="213.4 0.1 211.2 6.6 238.1 6.6 238.1 42.2 122.7 42.2 122.7 48.8 244.7 48.8 244.7 0.1 213.4 0.1"/><path d="M209.8,32.8a12,12,0,0,1-3.1-8.6,12,12,0,0,1,3.1-8.6,9.8,9.8,0,0,1,7.6-3.4,7.7,7.7,0,0,1,6.8,3.3v-3h7.2V35.9h-7.2V32.5a8.1,8.1,0,0,1-6.9,3.7A10.1,10.1,0,0,1,209.8,32.8Zm12.9-4.4a5.7,5.7,0,0,0,1.5-4.2,5.8,5.8,0,0,0-1.5-4.3,4.9,4.9,0,0,0-3.6-1.5,4.9,4.9,0,0,0-3.5,1.5,5.6,5.6,0,0,0-1.6,4.3,5.4,5.4,0,0,0,1.6,4.3,4.9,4.9,0,0,0,3.5,1.5A5,5,0,0,0,222.7,28.4Z"/><path d="M133.5,15.6a9.8,9.8,0,0,0-7.6-3.4,7.8,7.8,0,0,0-6.8,3.3v-3h-7.2V48.8h7.2V32.5a7.9,7.9,0,0,0,6.9,3.7,10.1,10.1,0,0,0,7.5-3.4,12,12,0,0,0,3.1-8.6A12,12,0,0,0,133.5,15.6Zm-5.8,12.9a4.9,4.9,0,0,1-3.5,1.5,5,5,0,0,1-3.6-1.6,5.7,5.7,0,0,1-1.5-4.2,5.8,5.8,0,0,1,1.5-4.3,4.9,4.9,0,0,1,3.6-1.5,4.9,4.9,0,0,1,3.5,1.5,5.6,5.6,0,0,1,1.6,4.3A5.4,5.4,0,0,1,127.7,28.5Z"/><polygon points="193.2 29.9 189.3 17.2 181.7 17.2 188.5 35.9 197.9 35.9 209.6 0 201.9 0 193.2 29.9"/></svg>