<svg xmlns="http://www.w3.org/2000/svg" viewBox="0 0 422.6 67.6"><title>Asset 37</title><rect x="357.1" width="65.5" height="65.48" fill="#6488bc"/><polygon points="413.6 52.7 413.6 56.5 366.1 56.5 366.1 9 413.6 9 413.6 31.7 422.6 31.7 422.6 0 357.1 0 357.1 65.5 422.6 65.5 422.6 52.7 413.6 52.7"/><path d="M390.8,42.3a5.4,5.4,0,0,1-1.5,3.8,5.2,5.2,0,0,1-3.8,1.5,5.1,5.1,0,0,1-3.7-1.5,5.4,5.4,0,0,1-1.5-3.8,5,5,0,0,1,1.5-3.7,4.9,4.9,0,0,1,3.7-1.6,4.9,4.9,0,0,1,3.8,1.6A5,5,0,0,1,390.8,42.3Z"/><path d="M406.7,42.3a5.4,5.4,0,0,1-1.5,3.8,5.2,5.2,0,0,1-3.8,1.5,5.1,5.1,0,0,1-3.7-1.5,5.4,5.4,0,0,1-1.5-3.8,5,5,0,0,1,1.5-3.7,4.9,4.9,0,0,1,3.7-1.6,4.9,4.9,0,0,1,3.8,1.6A5,5,0,0,1,406.7,42.3Z"/><path d="M422.6,42.3a5.4,5.4,0,0,1-1.5,3.8,5.1,5.1,0,0,1-3.7,1.5,5.2,5.2,0,0,1-3.8-1.5,5.4,5.4,0,0,1-1.5-3.8,5,5,0,0,1,1.5-3.7,4.9,4.9,0,0,1,3.8-1.6,4.9,4.9,0,0,1,3.7,1.6A5,5,0,0,1,422.6,42.3Z"/><path d="M14.4,52.3,0,11.7H10.5L20.6,42.6l10-30.9H41.1L26.7,52.3Z"/><path d="M59,52.7a15.8,15.8,0,0,1-11.6-4.6q-4.5-4.5-4.5-12t4.5-12A15.9,15.9,0,0,1,59,19.7a16.5,16.5,0,0,1,11.8,4.4c3.1,2.9,4.6,7,4.6,12.2a15.6,15.6,0,0,1-.2,3.1H53a5.3,5.3,0,0,0,1.9,3.5,5.4,5.4,0,0,0,3.5,1.3,6.6,6.6,0,0,0,2.8-.4,6,6,0,0,0,1.4-.7l1.1-1.2H74.4a14.1,14.1,0,0,1-5.6,7.8A16.1,16.1,0,0,1,59,52.7Zm4.2-23.2a6.6,6.6,0,0,0-4.1-1.4,6.1,6.1,0,0,0-4,1.4,5.9,5.9,0,0,0-2,3.7H65.2A5.9,5.9,0,0,0,63.2,29.5Z"/><path d="M91.1,20v6c2.3-4.2,5.4-6.3,9.2-6.3v10H97.9a7.4,7.4,0,0,0-5.1,1.6c-1.1,1.1-1.7,3-1.7,5.7V52.3H81.2V20Z"/><path d="M114.1,16.4a5.8,5.8,0,0,1-8.2,0,5.6,5.6,0,0,1-1.6-4.1,5.7,5.7,0,0,1,9.8-4.2,5.7,5.7,0,0,1,1.7,4.2A5.7,5.7,0,0,1,114.1,16.4Zm-9,35.9V20H115V52.3Z"/><path d="M133.1,18.8V20h19.3V52.3h-9.9V28.2h-9.4V52.3h-9.9V28.2h-3V20h3V18.8c0-4.1,1.1-7.1,3.3-8.9S132.1,7,136.7,7v8.4a4.3,4.3,0,0,0-2.8.8A3.5,3.5,0,0,0,133.1,18.8Zm18.4-2.4a5.8,5.8,0,0,1-9.9-4.1,5.7,5.7,0,0,1,1.7-4.2,5.8,5.8,0,0,1,8.2,0,5.7,5.7,0,0,1,1.7,4.2A5.7,5.7,0,0,1,151.5,16.4Z"/><path d="M162.6,48.2c-3-3.1-4.5-7.1-4.5-12.1s1.5-9,4.5-11.9a15.4,15.4,0,0,1,11.5-4.5,16.2,16.2,0,0,1,10,2.9,13.6,13.6,0,0,1,5.5,8.3H178.9a4.7,4.7,0,0,0-4.6-2.8,5.1,5.1,0,0,0-4.6,2.2,9.5,9.5,0,0,0-1.6,5.8,9.6,9.6,0,0,0,1.6,5.9,5,5,0,0,0,4.4,2.2,5.7,5.7,0,0,0,2.9-.6,5.7,5.7,0,0,0,1.9-2.3h10.7a14.6,14.6,0,0,1-5.5,8.3,16.7,16.7,0,0,1-10,3.1A15.4,15.4,0,0,1,162.6,48.2Z"/><path d="M196.4,48c-2.8-3-4.2-7-4.2-11.8a17.1,17.1,0,0,1,4.2-11.9,13.8,13.8,0,0,1,10.5-4.6,10.9,10.9,0,0,1,9.4,4.5V20h9.9V52.3h-9.9V47.6a11.2,11.2,0,0,1-9.6,5.1A13.6,13.6,0,0,1,196.4,48Zm17.8-6a7.9,7.9,0,0,0,2.1-5.9,7.6,7.6,0,0,0-2.1-5.8,7,7,0,0,0-4.9-2.1,6.7,6.7,0,0,0-4.9,2.1,7.7,7.7,0,0,0-2.2,5.9,7.7,7.7,0,0,0,2.2,5.9,6.9,6.9,0,0,0,9.8-.1Z"/><path d="M251.1,60.7c0-.9-.4-1.4-1.3-1.4h-5.1V52.4a15.6,15.6,0,0,1-9.3-5.3c-2.3-2.9-3.5-6.7-3.5-11.4a15.4,15.4,0,0,1,4.5-11.5A15.6,15.6,0,0,1,248,19.7a16.6,16.6,0,0,1,10,2.9,13.9,13.9,0,0,1,5.4,8.3H252.7a4.6,4.6,0,0,0-4.5-2.8,5.2,5.2,0,0,0-4.7,2.2,10.2,10.2,0,0,0-1.5,5.8,10.3,10.3,0,0,0,1.5,5.9,5,5,0,0,0,4.5,2.2,5.3,5.3,0,0,0,2.8-.6,5,5,0,0,0,1.9-2.3h10.7a13.9,13.9,0,0,1-4.6,7.5,15.2,15.2,0,0,1-8.1,3.7v1.9a9,9,0,0,1,5.3,1.5,5.6,5.6,0,0,1,2.2,4.9,6.4,6.4,0,0,1-2.2,5,8.3,8.3,0,0,1-5.3,1.8h-9.4V62.2h9.1l.4-.2c0-.1.1-.2.2-.3S251.1,61.2,251.1,60.7Z"/><path d="M270.3,48c-2.9-3-4.3-7-4.3-11.8a16.7,16.7,0,0,1,4.3-11.9,13.5,13.5,0,0,1,10.4-4.6,10.9,10.9,0,0,1,9.4,4.5V20H300V52.3h-9.9V47.6a11.2,11.2,0,0,1-9.6,5.1A13.3,13.3,0,0,1,270.3,48ZM280.6,8.5a8.2,8.2,0,0,1,4.2,1.3,9.2,9.2,0,0,0,3.4,1.3c1.4,0,2.2-.9,2.4-2.6h4.8c-.9,5.7-3.4,8.5-7.6,8.5a8.8,8.8,0,0,1-4.3-1.3,8.9,8.9,0,0,0-3.3-1.3c-1.4,0-2.3.9-2.6,2.6h-4.7C273.8,11.3,276.4,8.5,280.6,8.5ZM288,42a7.9,7.9,0,0,0,2.1-5.9,7.6,7.6,0,0,0-2.1-5.8,6.8,6.8,0,0,0-4.9-2.1,6.7,6.7,0,0,0-4.9,2.1,7.7,7.7,0,0,0-2.2,5.9,7.7,7.7,0,0,0,2.2,5.9,7,7,0,0,0,4.9,2A6.8,6.8,0,0,0,288,42Z"/><path d="M310.7,48.1c-3.3-3-4.9-7.1-4.9-12s1.6-9,4.8-11.9a17.2,17.2,0,0,1,12-4.5,16.9,16.9,0,0,1,12,4.5c3.2,2.9,4.8,6.9,4.8,11.9s-1.5,9-4.7,12a18,18,0,0,1-24,0Zm16.7-6c1.3-1.3,2-3.3,2-6a8.1,8.1,0,0,0-2-5.9,6.6,6.6,0,0,0-4.8-2.1,6.3,6.3,0,0,0-4.8,2.1,8.1,8.1,0,0,0-2,5.9q0,4,2.1,6a6.4,6.4,0,0,0,4.8,2.1A6.2,6.2,0,0,0,327.4,42.1Z"/></svg>